<svg xmlns="http://www.w3.org/2000/svg" version="1.1" xlink="http://www.w3.org/1999/xlink" xmlns:svgjs="http://svgjs.com/svgjs" width="100%" height="100%" preserveAspectRatio="xMidYMid meet" viewBox="0 0 299.9967346191406 51.06486892700195" overflow="visible"><defs id="SvgjsDefs166997"></defs><g id="SvgjsG166998" transform="scale(0.6493506493506493)" opacity="1"><g id="SvgjsG166999" class="2Yesgd1SS" transform="translate(0, 0) scale(0.7863989957810539)" light-content="false" non-strokable="false" fill="#000000">
<path d="M24 0h76v76c0 13.255-10.745 24-24 24H0V24C0 10.745 10.745 0 24 0z"></path>
</g>
<g id="SvgjsG167000" class="text" transform="translate(41.29052045798341, 51.47139305147627) scale(1)" light-content="true" fill="#ffffff"><path d="M-21.79 -21.94L-21.79 0L-14.46 0L-14.46 -9.33L-11.74 -3.75L-7.92 -3.75L-5.2 -9.33L-5.2 0L2.13 0L2.13 -21.94L-4.89 -21.94L-9.79 -11.82L-14.77 -21.94Z M6.22 -2.54C8.37 -0.62 11.52 0.34 15.65 0.34C16.97 0.34 18.17 0.25 19.26 0.07C20.35 -0.11 21.42 -0.4 22.47 -0.78L22.47 -7.19C20.47 -6.3 18.37 -5.86 16.16 -5.86C14.28 -5.86 12.85 -6.26 11.89 -7.05C10.92 -7.85 10.44 -9.13 10.44 -10.9C10.44 -12.72 10.91 -14.04 11.86 -14.85C12.8 -15.67 14.21 -16.08 16.1 -16.08C18.25 -16.08 20.35 -15.63 22.4 -14.72L22.4 -21.09C21.33 -21.5 20.26 -21.8 19.2 -21.99C18.13 -22.18 16.93 -22.28 15.59 -22.28C11.43 -22.28 8.29 -21.31 6.17 -19.38C4.04 -17.45 2.98 -14.63 2.98 -10.9C2.98 -7.24 4.06 -4.46 6.22 -2.54Z"></path></g><g id="SvgjsG167001" class="text" transform="translate(275.1649128806203, 53.9447224989686) scale(1)" light-content="false" fill="#000000">
<path d="M-186.83 -32.55L-186.83 0L-175.97 0L-175.97 -13.85L-171.92 -5.56L-166.26 -5.56L-162.22 -13.85L-162.22 0L-151.35 0L-151.35 -32.55L-161.76 -32.55L-169.04 -17.54L-176.42 -32.55Z M-145.94 -1.44C-144.35 -0.14 -142.33 0.51 -139.87 0.51C-136.37 0.51 -133.71 -0.27 -131.89 -1.82L-131.43 0L-121.93 0L-121.93 -14.51C-121.93 -17.84 -123.07 -20.34 -125.36 -21.99C-127.66 -23.64 -130.82 -24.47 -134.87 -24.47C-136.76 -24.47 -138.66 -24.31 -140.58 -23.99C-142.5 -23.67 -144.09 -23.24 -145.33 -22.7L-145.33 -16.58C-144.02 -16.98 -142.64 -17.3 -141.19 -17.52C-139.74 -17.73 -138.36 -17.84 -137.04 -17.84C-133.84 -17.84 -132.24 -17.15 -132.24 -15.77L-132.24 -15.42L-138.05 -15.42C-141.49 -15.42 -144.06 -14.73 -145.76 -13.35C-147.46 -11.96 -148.31 -9.96 -148.31 -7.33C-148.31 -4.7 -147.52 -2.74 -145.94 -1.44ZM-132.24 -7.13C-133.18 -6.12 -134.41 -5.61 -135.93 -5.61C-137.55 -5.61 -138.36 -6.29 -138.36 -7.63C-138.36 -8.37 -138.14 -8.91 -137.7 -9.23C-137.26 -9.55 -136.59 -9.71 -135.68 -9.71L-132.24 -9.71Z M-115.99 -1.95C-114.42 -0.31 -111.97 0.51 -108.63 0.51C-105.97 0.51 -103.66 0.1 -101.71 -0.71L-101.71 -7.68C-102.72 -7.35 -103.73 -7.18 -104.74 -7.18C-105.68 -7.18 -106.37 -7.37 -106.81 -7.76C-107.25 -8.15 -107.47 -8.76 -107.47 -9.6L-107.47 -16.02L-102.57 -16.02L-102.26 -23.96L-107.47 -23.96L-107.47 -31.14L-118.34 -28.76L-118.34 -23.96L-121.32 -23.96L-121.32 -16.02L-118.34 -16.02L-118.34 -8.95C-118.34 -5.91 -117.55 -3.58 -115.99 -1.95Z M-97.11 -34.17L-97.11 -26.54L-85.43 -26.54L-85.43 -34.17ZM-96.3 -16.07L-96.3 0L-85.43 0L-85.43 -23.96L-98.78 -23.96L-99.69 -16.07Z M-81.39 -23.96L-81.39 0L-70.52 0L-70.52 -15.06C-70.15 -15.43 -69.67 -15.75 -69.08 -16.02C-68.49 -16.29 -67.92 -16.43 -67.38 -16.43C-66.51 -16.43 -65.88 -16.25 -65.51 -15.9C-65.14 -15.54 -64.96 -14.95 -64.96 -14.1L-64.96 0L-54.09 0L-54.09 -15.37C-54.09 -18.47 -54.77 -20.76 -56.14 -22.24C-57.5 -23.72 -59.63 -24.47 -62.53 -24.47C-64.15 -24.47 -65.72 -24.26 -67.26 -23.86C-68.79 -23.46 -70.03 -22.95 -70.97 -22.34L-71.23 -23.96Z M-30.33 -3.77C-27.13 -0.92 -22.46 0.51 -16.33 0.51C-14.37 0.51 -12.59 0.37 -10.97 0.1C-9.35 -0.17 -7.77 -0.59 -6.22 -1.16L-6.22 -10.67C-9.18 -9.35 -12.3 -8.69 -15.57 -8.69C-18.37 -8.69 -20.48 -9.28 -21.91 -10.46C-23.35 -11.64 -24.06 -13.55 -24.06 -16.18C-24.06 -18.87 -23.36 -20.83 -21.96 -22.04C-20.57 -23.25 -18.47 -23.86 -15.67 -23.86C-12.47 -23.86 -9.35 -23.19 -6.32 -21.84L-6.32 -31.29C-7.9 -31.9 -9.49 -32.34 -11.07 -32.63C-12.65 -32.92 -14.44 -33.06 -16.43 -33.06C-22.6 -33.06 -27.25 -31.63 -30.41 -28.76C-33.56 -25.9 -35.13 -21.7 -35.13 -16.18C-35.13 -10.75 -33.53 -6.61 -30.33 -3.77Z M-3.18 -34.07L-3.18 0L7.68 0L7.68 -15.06C8.05 -15.43 8.53 -15.75 9.12 -16.02C9.71 -16.29 10.28 -16.43 10.82 -16.43C11.69 -16.43 12.31 -16.25 12.66 -15.9C13.02 -15.54 13.19 -14.93 13.19 -14.05L13.19 0L24.11 0L24.11 -14.91C24.11 -18.15 23.33 -20.55 21.76 -22.12C20.19 -23.68 17.74 -24.47 14.41 -24.47C13.13 -24.47 11.89 -24.31 10.69 -23.99C9.5 -23.67 8.49 -23.25 7.68 -22.75L7.68 -34.07Z M28.51 -1.44C30.09 -0.14 32.12 0.51 34.58 0.51C38.08 0.51 40.74 -0.27 42.56 -1.82L43.02 0L52.52 0L52.52 -14.51C52.52 -17.84 51.38 -20.34 49.08 -21.99C46.79 -23.64 43.62 -24.47 39.58 -24.47C37.69 -24.47 35.79 -24.31 33.87 -23.99C31.95 -23.67 30.36 -23.24 29.12 -22.7L29.12 -16.58C30.43 -16.98 31.81 -17.3 33.26 -17.52C34.71 -17.73 36.09 -17.84 37.41 -17.84C40.61 -17.84 42.21 -17.15 42.21 -15.77L42.21 -15.42L36.4 -15.42C32.96 -15.42 30.39 -14.73 28.69 -13.35C26.99 -11.96 26.13 -9.96 26.13 -7.33C26.13 -4.7 26.93 -2.74 28.51 -1.44ZM42.21 -7.13C41.27 -6.12 40.04 -5.61 38.52 -5.61C36.9 -5.61 36.09 -6.29 36.09 -7.63C36.09 -8.37 36.31 -8.91 36.75 -9.23C37.19 -9.55 37.86 -9.71 38.77 -9.71L42.21 -9.71Z M61.01 8.59C63.14 8.8 65.23 8.9 67.28 8.9C72.03 8.9 75.56 8.22 77.87 6.87C80.18 5.53 81.34 3.64 81.34 1.21C81.34 -1.01 80.61 -2.7 79.16 -3.84C77.71 -4.99 75.72 -5.56 73.2 -5.56L68.34 -5.56C67.84 -5.56 67.46 -5.61 67.21 -5.71C66.95 -5.81 66.83 -6.02 66.83 -6.32C66.83 -6.96 67.59 -7.35 69.1 -7.48C70.72 -7.38 71.63 -7.33 71.83 -7.33C74.83 -7.33 77.04 -8.02 78.45 -9.4C79.87 -10.78 80.58 -12.74 80.58 -15.27C80.58 -16.07 80.37 -16.8 79.97 -17.44L82.9 -17.44L83.1 -23.96L73.5 -23.96C72.96 -24.06 72.14 -24.17 71.02 -24.29C69.91 -24.41 68.95 -24.47 68.14 -24.47C64.03 -24.47 60.89 -23.72 58.71 -22.24C56.54 -20.76 55.45 -18.48 55.45 -15.42C55.45 -13.77 55.77 -12.42 56.39 -11.37C57.01 -10.33 58.01 -9.45 59.4 -8.75C58.15 -8.34 57.2 -7.73 56.54 -6.93C55.88 -6.12 55.55 -5.16 55.55 -4.04C55.55 -0.91 58.25 0.66 63.64 0.66L69.66 0.66C70.5 0.66 71.09 0.71 71.43 0.81C71.76 0.91 71.93 1.11 71.93 1.42C71.93 2.12 70.16 2.48 66.63 2.48C64.87 2.48 63.01 2.37 61.04 2.15C59.07 1.93 57.44 1.6 56.16 1.16L56.16 7.68C57.27 8.09 58.89 8.39 61.01 8.59ZM70.75 -13.83C70.29 -13.44 69.46 -13.24 68.24 -13.24C67.06 -13.24 66.23 -13.45 65.74 -13.88C65.25 -14.3 65.01 -14.96 65.01 -15.87C65.01 -16.82 65.26 -17.51 65.77 -17.95C66.27 -18.38 67.1 -18.6 68.24 -18.6C69.39 -18.6 70.21 -18.39 70.69 -17.97C71.18 -17.55 71.43 -16.85 71.43 -15.87C71.43 -14.9 71.2 -14.21 70.75 -13.83Z M85.48 -34.07L85.48 0L96.35 0L96.35 -15.06C96.72 -15.43 97.2 -15.75 97.79 -16.02C98.38 -16.29 98.94 -16.43 99.48 -16.43C100.36 -16.43 100.97 -16.25 101.33 -15.9C101.68 -15.54 101.86 -14.93 101.86 -14.05L101.86 0L112.78 0L112.78 -14.91C112.78 -18.15 111.99 -20.55 110.43 -22.12C108.86 -23.68 106.41 -24.47 103.07 -24.47C101.79 -24.47 100.55 -24.31 99.36 -23.99C98.16 -23.67 97.16 -23.25 96.35 -22.75L96.35 -34.07Z M117.18 -1.44C118.76 -0.14 120.78 0.51 123.24 0.51C126.75 0.51 129.41 -0.27 131.23 -1.82L131.68 0L141.19 0L141.19 -14.51C141.19 -17.84 140.04 -20.34 137.75 -21.99C135.46 -23.64 132.29 -24.47 128.25 -24.47C126.36 -24.47 124.45 -24.31 122.53 -23.99C120.61 -23.67 119.03 -23.24 117.78 -22.7L117.78 -16.58C119.1 -16.98 120.48 -17.3 121.93 -17.52C123.38 -17.73 124.76 -17.84 126.07 -17.84C129.27 -17.84 130.87 -17.15 130.87 -15.77L130.87 -15.42L125.06 -15.42C121.62 -15.42 119.05 -14.73 117.35 -13.35C115.65 -11.96 114.8 -9.96 114.8 -7.33C114.8 -4.7 115.59 -2.74 117.18 -1.44ZM130.87 -7.13C129.93 -6.12 128.7 -5.61 127.18 -5.61C125.57 -5.61 124.76 -6.29 124.76 -7.63C124.76 -8.37 124.98 -8.91 125.42 -9.23C125.85 -9.55 126.53 -9.71 127.44 -9.71L130.87 -9.71Z M150.29 -0.91C152.48 0.03 155 0.51 157.87 0.51C162.42 0.51 165.89 -0.07 168.28 -1.21L168.28 -7.38C167.41 -7.04 166.26 -6.75 164.84 -6.5C163.43 -6.24 162.03 -6.12 160.65 -6.12C158.59 -6.12 156.96 -6.34 155.75 -6.8C154.53 -7.25 153.71 -7.95 153.27 -8.9L169.55 -8.9L169.55 -13.04C169.55 -16.61 168.38 -19.41 166.06 -21.43C163.73 -23.46 160.56 -24.47 156.55 -24.47C152.24 -24.47 148.95 -23.35 146.7 -21.1C144.44 -18.86 143.31 -15.79 143.31 -11.88C143.31 -9.22 143.92 -6.96 145.15 -5.11C146.39 -3.25 148.1 -1.85 150.29 -0.91ZM160.24 -14.56L153.27 -14.56C153.27 -15.6 153.55 -16.4 154.13 -16.96C154.7 -17.52 155.63 -17.79 156.91 -17.79C158.09 -17.79 158.94 -17.56 159.46 -17.09C159.98 -16.61 160.24 -15.99 160.24 -15.22Z M175.16 -34.17L175.16 -26.54L186.83 -26.54L186.83 -34.17ZM175.97 -16.07L175.97 0L186.83 0L186.83 -23.96L173.49 -23.96L172.58 -16.07Z">
</path>
</g>
<rect id="SvgjsRect167002" width="196.08960109891737" height="5.494590013540456" fill="#333333" transform="translate(78.6398995781054, 0) scale(1)" light-content="false">
</rect>
</g>
</svg>